<?xml version="1.0" standalone="no"?>
<!DOCTYPE svg PUBLIC "-//W3C//DTD SVG 20010904//EN"
 "http://www.w3.org/TR/2001/REC-SVG-20010904/DTD/svg10.dtd">
<svg version="1.0" xmlns="http://www.w3.org/2000/svg"
 width="16.000000pt" height="16.000000pt" viewBox="0 0 16.000000 16.000000"
 preserveAspectRatio="xMidYMid meet">
<metadata>
Created by potrace 1.11, written by Peter Selinger 2001-2013
</metadata>
<g transform="translate(0.000000,16.000000) scale(0.003101,-0.003101)"
fill="#000000" stroke="none">
<path d="M3550 4176 c0 -2 25 -18 55 -35 63 -36 167 -138 185 -182 7 -16 16
-29 21 -29 5 0 8 -3 8 -7 -4 -25 2 -43 13 -37 7 5 8 3 3 -6 -4 -7 -3 -15 3
-19 7 -4 13 -18 14 -31 2 -14 8 -28 13 -32 6 -5 -6 -8 -25 -7 -19 0 -68 -2
-107 -4 -40 -3 -70 -1 -68 4 3 4 -5 5 -17 2 -13 -3 -54 -7 -93 -9 -38 -2 -100
-6 -137 -8 -41 -2 -68 1 -68 7 0 5 -6 4 -14 -2 -8 -7 -36 -11 -63 -10 -45 2
-209 -8 -260 -16 -13 -2 -23 2 -23 8 0 8 -3 8 -8 2 -4 -6 -47 -12 -97 -14 -49
-1 -93 -5 -96 -7 -7 -4 -210 -16 -304 -18 -38 0 -73 -5 -77 -11 -5 -6 -8 -5
-8 3 0 9 -5 10 -18 3 -10 -5 -43 -8 -73 -6 -29 2 -58 0 -64 -3 -5 -4 -32 -8
-60 -9 -27 -1 -77 -5 -110 -9 -33 -4 -80 -8 -105 -8 -25 -1 -49 -4 -55 -7 -5
-3 -34 -5 -62 -3 -32 1 -53 -2 -53 -8 0 -7 -14 -8 -35 -5 -20 3 -34 3 -31 -1
2 -4 -21 -8 -52 -9 -32 -1 -57 -2 -57 -3 0 -3 -66 -11 -120 -14 -74 -6 -377
-45 -400 -53 -11 -3 -40 -8 -65 -9 -25 -2 -65 -8 -90 -13 -25 -5 -49 -6 -54
-1 -5 5 -15 6 -23 3 -10 -4 -11 -8 -4 -13 6 -3 -10 -6 -36 -5 -27 0 -74 -7
-105 -16 -32 -10 -58 -14 -58 -9 0 17 -68 -25 -84 -51 -27 -46 -17 -153 13
-135 6 4 11 2 11 -3 0 -20 28 -11 44 14 23 36 58 50 197 84 147 35 165 38 284
56 22 4 58 10 80 15 22 5 69 12 105 16 36 3 68 8 72 10 3 2 44 6 90 9 103 7
146 12 158 20 5 3 52 8 106 10 53 3 100 7 103 9 8 5 114 15 316 31 50 4 101 8
115 10 14 2 70 7 125 11 55 3 109 8 120 10 25 5 153 12 350 20 83 3 166 7 185
10 19 2 109 6 200 9 220 5 555 16 608 19 30 2 42 -1 42 -11 0 -7 4 -13 8 -13
4 0 8 -19 9 -42 1 -23 8 -45 15 -49 10 -7 10 -9 1 -9 -8 0 -13 -13 -13 -31 0
-17 4 -28 10 -24 6 3 10 -1 10 -10 0 -9 -4 -13 -10 -10 -5 3 -10 -1 -10 -10 0
-9 5 -13 10 -10 11 7 12 -5 10 -82 -1 -32 3 -53 9 -53 6 0 11 -5 11 -11 0 -6
-9 -9 -20 -6 -18 5 -18 3 -4 -18 12 -19 12 -25 2 -36 -16 -17 -19 -89 -4 -89
6 0 5 -4 -3 -9 -8 -5 -15 -15 -17 -23 -1 -7 -7 -38 -13 -69 -6 -30 -9 -64 -5
-74 5 -12 4 -16 -4 -11 -11 6 -16 -5 -26 -59 -4 -16 -8 -39 -10 -50 -3 -11
-11 -37 -20 -57 -12 -28 -13 -38 -3 -41 7 -3 5 -6 -5 -6 -10 -1 -17 -4 -16 -8
1 -5 -4 -21 -11 -38 -7 -16 -14 -37 -16 -46 -2 -8 -11 -33 -20 -55 -9 -21 -29
-76 -44 -121 -15 -45 -32 -88 -37 -95 -6 -7 -18 -38 -28 -68 -11 -30 -27 -67
-37 -81 -10 -15 -23 -39 -29 -54 -6 -15 -35 -71 -65 -126 -30 -54 -57 -109
-61 -123 -3 -13 -12 -27 -20 -30 -8 -3 -14 -12 -14 -21 0 -8 -3 -15 -7 -15 -5
0 -19 -16 -32 -35 -13 -19 -27 -32 -32 -29 -5 3 -6 -3 -2 -12 5 -13 3 -15 -7
-9 -9 5 -11 4 -6 -3 7 -11 -46 -99 -67 -113 -5 -4 -3 -9 4 -12 8 -3 4 -6 -9
-6 -14 -1 -26 -10 -31 -24 -5 -13 -21 -37 -36 -55 -15 -18 -24 -32 -20 -32 3
0 -4 -10 -16 -22 -11 -13 -47 -58 -79 -100 -31 -43 -60 -75 -63 -71 -4 3 -9
-2 -13 -11 -3 -9 -12 -16 -20 -16 -8 0 -14 -5 -14 -11 0 -6 6 -7 13 -2 6 4 1
-7 -13 -24 -14 -17 -27 -29 -29 -27 -2 2 2 10 9 19 7 8 8 15 3 15 -12 0 -69
-71 -65 -83 1 -5 -2 -6 -7 -2 -6 3 -24 -7 -41 -22 -47 -42 -149 -93 -186 -93
-29 0 -34 4 -45 38 -20 56 -14 319 7 353 2 4 6 20 8 36 5 30 23 133 30 169 20
101 93 293 181 479 111 234 125 265 125 283 0 22 -49 79 -70 80 -8 1 -29 4
-45 8 -23 4 -35 0 -52 -18 -12 -13 -22 -27 -22 -33 -1 -5 -5 -11 -11 -11 -5
-1 -14 -2 -20 -3 -5 0 -10 -6 -10 -12 0 -5 6 -7 13 -3 6 4 3 -2 -7 -14 -23
-27 -27 -27 -20 -4 4 13 2 13 -8 -3 -7 -11 -52 -61 -101 -111 -48 -50 -84 -94
-80 -99 5 -4 3 -5 -3 -2 -6 3 -26 -9 -44 -28 -25 -26 -36 -32 -43 -22 -6 8 -7
7 -4 -4 5 -16 -103 -129 -123 -129 -6 0 -10 -7 -10 -16 0 -10 -6 -14 -15 -10
-8 3 -14 0 -12 -7 1 -7 -3 -11 -10 -10 -6 1 -29 -17 -51 -40 -21 -23 -45 -43
-52 -45 -7 -1 -26 -13 -44 -26 -39 -29 -70 -46 -107 -56 -38 -11 -50 10 -53
98 -4 83 19 253 48 357 38 137 132 339 247 530 90 148 102 167 187 279 24 32
46 69 48 83 3 14 6 28 7 32 0 3 -4 16 -11 29 -13 22 -13 22 -43 5 -71 -42
-279 -310 -279 -360 0 -6 -11 -20 -24 -31 -14 -10 -28 -31 -31 -45 -4 -14 -13
-31 -21 -38 -8 -6 -14 -20 -14 -31 0 -10 -4 -17 -9 -14 -5 3 -14 0 -20 -8 -9
-11 -9 -15 1 -19 10 -4 10 -6 1 -6 -7 -1 -13 -7 -13 -13 0 -7 -22 -57 -49
-111 -53 -104 -102 -242 -122 -342 -19 -96 -20 -261 -2 -330 39 -146 152 -220
266 -174 69 28 229 161 407 339 36 36 88 84 116 107 l51 42 -24 -50 c-14 -28
-22 -57 -19 -65 3 -8 2 -13 -3 -10 -12 8 -35 -50 -27 -69 3 -8 1 -15 -5 -15
-15 0 -28 -43 -17 -57 6 -8 2 -19 -12 -33 -11 -11 -18 -26 -14 -33 4 -7 3 -9
-1 -4 -5 4 -14 -7 -20 -25 -6 -18 -7 -36 -2 -39 11 -8 -2 -61 -14 -54 -7 5
-15 -18 -32 -92 -3 -12 0 -24 7 -27 6 -2 2 -5 -8 -5 -11 -1 -17 -4 -14 -7 4
-3 2 -19 -2 -35 -6 -19 -5 -29 2 -29 7 0 6 -5 -2 -15 -6 -8 -9 -23 -5 -35 4
-12 1 -28 -6 -36 -6 -8 -12 -39 -11 -69 0 -36 -4 -53 -11 -48 -6 4 -7 1 -2 -7
5 -7 10 -45 12 -84 2 -39 9 -76 15 -83 6 -7 8 -13 4 -13 -10 0 40 -94 69 -128
41 -49 90 -74 148 -77 59 -2 88 6 167 44 114 55 362 332 521 581 80 125 89
140 89 146 0 3 8 18 18 32 31 45 143 254 240 447 55 111 189 431 198 473 2 13
11 42 19 65 15 46 32 109 39 147 2 14 11 54 20 90 14 60 22 106 32 185 6 40 5
296 -1 326 -7 38 -18 86 -32 146 -5 19 0 21 54 27 32 3 85 6 118 6 32 1 66 6
74 13 10 8 13 9 8 0 -9 -15 35 -4 45 11 8 12 9 12 78 15 85 4 12 16 -95 15
-58 0 -105 3 -105 7 0 4 29 7 66 7 36 0 67 2 70 5 3 2 -37 5 -87 6 -56 1 -99
6 -108 14 -10 8 -13 8 -8 0 5 -8 -13 -11 -63 -12 -63 0 -72 2 -95 27 -14 15
-28 35 -31 45 -3 10 -23 36 -45 59 -21 23 -39 45 -39 50 0 4 -7 8 -15 8 -8 0
-15 7 -15 16 0 8 -4 12 -10 9 -5 -3 -7 0 -5 7 3 8 -9 21 -28 31 -19 10 -52 34
-73 53 -21 19 -57 42 -79 53 -41 19 -95 35 -95 27z m347 -1228 c-3 -8 -6 -5
-6 6 -1 11 2 17 5 13 3 -3 4 -12 1 -19z m-1617 -937 c0 -5 -7 -12 -16 -15 -14
-5 -15 -4 -4 9 14 17 20 19 20 6z"/>
<path d="M4400 3790 c0 -6 7 -10 15 -10 8 0 15 2 15 4 0 2 -7 6 -15 10 -8 3
-15 1 -15 -4z"/>
<path d="M4488 3753 c7 -3 16 -2 19 1 4 3 -2 6 -13 5 -11 0 -14 -3 -6 -6z"/>
<path d="M3901 3624 c0 -11 3 -14 6 -6 3 7 2 16 -1 19 -3 4 -6 -2 -5 -13z"/>
<path d="M1823 3450 c-18 -28 -33 -53 -33 -58 0 -4 -15 -22 -34 -39 -31 -30
-53 -73 -38 -73 4 0 15 -7 25 -14 14 -11 16 -19 8 -33 -19 -37 -36 -88 -33
-106 2 -9 -3 -19 -10 -22 -7 -3 -14 -19 -15 -36 -1 -16 -12 -43 -24 -60 -11
-16 -22 -40 -24 -52 -4 -36 -9 -51 -22 -65 -7 -7 -14 -19 -14 -25 -9 -81 -20
-127 -31 -127 -6 0 -8 -7 -5 -15 4 -8 2 -17 -3 -20 -4 -3 -11 -23 -15 -45 -4
-22 -10 -40 -15 -40 -4 0 -6 -10 -2 -22 4 -15 2 -19 -7 -13 -10 6 -11 2 -6
-15 5 -15 4 -20 -4 -16 -7 4 -9 1 -5 -8 6 -15 -57 -231 -80 -278 -10 -19 -11
-29 -3 -37 6 -6 7 -11 1 -11 -5 0 -10 -15 -11 -33 -2 -17 -10 -37 -18 -43 -12
-9 -13 -13 -4 -16 8 -3 9 -9 3 -19 -10 -16 -11 -20 -13 -50 0 -11 -5 -18 -10
-15 -5 4 -7 -2 -4 -12 3 -13 -4 -23 -24 -33 -15 -8 -28 -21 -28 -29 0 -8 -6
-49 -14 -90 l-14 -74 32 -27 c43 -35 90 -35 97 1 19 99 180 660 234 815 17 50
34 104 37 120 6 33 158 423 197 507 13 29 37 90 52 135 30 92 27 104 -33 130
-48 19 -55 17 -90 -37z m-162 -483 c-10 -9 -11 -8 -5 6 3 10 9 15 12 12 3 -3
0 -11 -7 -18z"/>
<path d="M3932 3390 c0 -14 2 -19 5 -12 2 6 2 18 0 25 -3 6 -5 1 -5 -13z"/>
<path d="M2685 2432 c-5 -4 -17 -16 -25 -27 -11 -15 -7 -14 13 4 24 22 32 31
25 31 -2 0 -7 -4 -13 -8z"/>
<path d="M3905 2063 c-15 -26 -36 -60 -46 -75 -11 -15 -19 -29 -19 -31 0 -3
-25 -47 -55 -98 -30 -51 -50 -96 -46 -99 12 -7 380 -4 387 3 3 3 -17 45 -45
92 -28 48 -51 88 -51 89 0 2 -22 40 -49 85 l-49 83 -27 -49z"/>
</g>
</svg>
